<svg xmlns="http://www.w3.org/2000/svg" xmlns:xlink="http://www.w3.org/1999/xlink" viewBox="0 0 23 26.51"><defs><style>.cls-1{fill:#ffd773;}.cls-2{fill:#ffc773;}.cls-3{fill:#ffc35b;}.cls-4{fill:url(#linear-gradient);}.cls-5{fill:#8b3400;}.cls-6{fill:#5f3400;}.cls-7{fill:#e77c00;}.cls-8{fill:#cd5616;}.cls-9{fill:#fff;}</style><linearGradient id="linear-gradient" y1="14.91" x2="23" y2="14.91" gradientUnits="userSpaceOnUse"><stop offset="0.39" stop-color="#ffd856"/><stop offset="1" stop-color="#ffa809"/></linearGradient></defs><title>tabicon-active</title><g id="Layer_2" data-name="Layer 2"><g id="Layer_1-2" data-name="Layer 1"><path class="cls-1" d="M11.33,3.79c-.66,0-1.4-1.55-1-2.73,0-.1.3-1,.89-1.06s1.08.6,1.26,1.13C12.86,2.28,12,3.8,11.33,3.79Z"/><path class="cls-2" d="M13.3.78c-1,0-1.48,1.79-1.56,2.1-.14.51-.3,1.09,0,1.33s1.26-.06,1.78-.49,1.23-1.64.74-2.38A1.17,1.17,0,0,0,13.3.78Z"/><path class="cls-3" d="M9.45.78c1,0,1.47,1.79,1.56,2.1.14.51.3,1.09,0,1.33s-1.26-.06-1.78-.49S8,2.08,8.49,1.34A1.17,1.17,0,0,1,9.45.78Z"/><ellipse class="cls-4" cx="11.5" cy="14.91" rx="11.5" ry="11.61"/><polygon class="cls-5" points="8.76 15.42 11.49 19.73 14.21 15.42 8.76 15.42"/><polygon class="cls-6" points="11.51 15.43 11.51 19.7 14.21 15.43 11.51 15.43"/><polygon class="cls-7" points="8.76 15.43 11.49 17.69 14.21 15.43 8.76 15.43"/><polygon class="cls-8" points="11.51 15.43 14.24 15.43 11.51 17.69 11.51 15.43"/><circle cx="6.83" cy="12.7" r="1.38"/><circle cx="16.17" cy="12.7" r="1.38"/><circle class="cls-9" cx="16.16" cy="12.13" r="0.3"/><circle class="cls-9" cx="6.86" cy="12.13" r="0.3"/></g></g></svg>